Coordinates
version=1
nRows=16
nColumns=40
inDegrees=yes

Units are S.I. units (second, meters, Newtons, ...)
Angles are in degrees.

endheader
time	pelvis_tilt	pelvis_list	pelvis_rotation	pelvis_tx	pelvis_ty	pelvis_tz	hip_flexion_r	hip_adduction_r	hip_rotation_r	knee_angle_r	knee_angle_r_beta	ankle_angle_r	subtalar_angle_r	mtp_angle_r	hip_flexion_l	hip_adduction_l	hip_rotation_l	knee_angle_l	knee_angle_l_beta	ankle_angle_l	subtalar_angle_l	mtp_angle_l	lumbar_extension	lumbar_bending	lumbar_rotation	arm_flex_r	arm_add_r	arm_rot_r	elbow_flex_r	pro_sup_r	wrist_flex_r	wrist_dev_r	arm_flex_l	arm_add_l	arm_rot_l	elbow_flex_l	pro_sup_l	wrist_flex_l	wrist_dev_l
      4.26500000	     -6.14178227	     -2.52882189	     -5.21133905	      1.01656779	      0.91554828	      0.51525127	     22.89532993	      1.46428998	     -4.17919401	     29.86635740	     29.86635740	     13.52276344	     -5.58229891	     -0.69392140	      3.06500563	    -10.01488319	     -6.00797944	     27.82214004	     27.82214004	     16.66789742	    -15.15133712	      1.00860661	     -8.94351693	      6.06668641	      1.37875227	      0.59447882	    -12.61384542	     -6.83377380	     35.99189222	     46.38085244	      0.00000000	      0.00000000	     23.73570336	    -12.89585111	    -13.79125303	     90.64584791	     48.34784979	      0.00000000	      0.00000000
      4.28400000	     -6.22089280	     -2.62558441	     -4.87938391	      1.01628737	      0.91659822	      0.52001283	     22.18978079	      1.80731903	     -4.56585881	     29.19815669	     29.19815669	     13.78163303	     -5.37155232	     -0.44996139	      4.16385091	    -10.57786576	     -5.40154016	     30.07092904	     30.07092904	     15.51979252	    -15.97539705	      0.71185014	     -8.85977976	      6.10117347	      1.20832294	      1.71161826	    -12.96371893	     -6.48124359	     36.33591023	     46.34976569	      0.00000000	      0.00000000	     22.86413823	    -12.78921923	    -13.00191394	     89.26221622	     48.26780882	      0.00000000	      0.00000000
      4.30300000	     -6.22768762	     -2.76172245	     -4.53448796	      1.01570097	      0.91756697	      0.52458835	     21.46422373	      2.16128996	     -5.00674085	     28.60031580	     28.60031580	     13.98517861	     -5.12850985	     -0.26848093	      5.40754833	    -11.16899538	     -4.77662290	     32.63662390	     32.63662390	     14.35221156	    -16.84713283	      0.56299056	     -8.90413902	      6.15967498	      1.04741318	      2.91710380	    -13.31696320	     -6.12343491	     36.85781756	     46.31312951	      0.00000000	      0.00000000	     21.95178524	    -12.61596381	    -12.15165422	     87.70173782	     48.17984712	      0.00000000	      0.00000000
      4.32200000	     -6.30959482	     -2.77941467	     -4.16509012	      1.01473866	      0.91822711	      0.52888414	     20.93459934	      2.36324407	     -5.45430819	     28.16977723	     28.16977723	     14.48887163	     -4.72290014	      0.49166804	      6.98395173	    -11.58975107	     -4.04996210	     35.54066961	     35.54066961	     13.60733772	    -17.51398487	      1.48320103	     -8.75867363	      6.07665549	      1.71366948	      2.97768312	    -14.62254354	     -2.61471883	     38.81174688	     46.00407137	      0.00000000	      0.00000000	     22.17440447	    -12.62720910	     -9.01819324	     83.20275465	     47.91605063	      0.00000000	      0.00000000
      4.34100000	     -6.26553172	     -2.96614639	     -3.75489992	      1.01353048	      0.91877148	      0.53297765	     20.27954904	      2.73294041	     -5.93867363	     27.72125535	     27.72125535	     14.69065919	     -4.54723239	      0.54082474	      8.59510828	    -12.19449420	     -3.35336210	     38.63220769	     38.63220769	     12.62958143	    -18.17938378	      1.67332684	     -8.91828462	      6.14927159	      1.34151368	      4.33297406	    -14.95414148	     -2.48712934	     39.71694795	     45.96881491	      0.00000000	      0.00000000	     20.92435524	    -12.45690425	     -8.44118311	     81.59416041	     47.84379931	      0.00000000	      0.00000000
      4.36000000	     -6.34669149	     -2.97395137	     -3.32949494	      1.01200466	      0.91890303	      0.53675100	     19.91361192	      2.89849702	     -6.35518776	     27.49651708	     27.49651708	     14.97766500	     -4.40940362	      0.58242690	     10.55114137	    -12.52881879	     -2.58499369	     41.95942689	     41.95942689	     12.44255531	    -18.49849270	      3.84356479	     -8.82460552	      6.08884929	      0.86206873	      5.44928486	    -15.40601041	     -1.41548135	     41.46411201	     45.84472688	      0.00000000	      0.00000000	     20.12172582	    -12.68145496	     -7.01856121	     77.44478829	     47.67853486	      0.00000000	      0.00000000
      4.37900000	     -6.24815900	     -3.08603732	     -2.92537368	      1.01025297	      0.91892454	      0.54025644	     19.45831872	      3.15164547	     -6.78227266	     27.44734622	     27.44734622	     15.36003458	     -4.33687790	      0.76948738	     12.55213565	    -12.79401014	     -1.57636317	     45.64930646	     45.64930646	     13.72510499	    -18.69108326	      9.64367215	     -9.04285801	      6.10176310	      1.76765042	      5.21529325	    -16.93907040	      0.69979127	     45.03292734	     45.58906134	      0.00000000	      0.00000000	     20.28422101	    -12.04031631	     -4.28998795	     72.91854498	     47.45048012	      0.00000000	      0.00000000
      4.39800000	     -6.15328816	     -3.17737636	     -2.47408835	      1.00831065	      0.91862823	      0.54350113	     19.10757504	      3.39715809	     -7.08486530	     27.54366551	     27.54366551	     15.69555737	     -4.58289181	      0.81488944	     14.49928378	    -13.05697733	     -0.75642658	     48.96448860	     48.96448860	     14.10599209	    -18.93488450	     12.61420627	     -9.23078916	      6.10810418	      1.77499623	      6.17972041	    -17.60611606	      1.21400465	     46.92878056	     45.50017813	      0.00000000	      0.00000000	     19.84086647	    -11.65953690	     -2.80325225	     68.36567049	     47.29818723	      0.00000000	      0.00000000
      4.41700000	     -6.03850648	     -3.35899385	     -2.01288370	      1.00626745	      0.91791336	      0.54659776	     18.82779640	      3.74409468	     -7.35831078	     27.79027863	     27.79027863	     16.08112556	     -4.98955025	      0.71576232	     16.36795240	    -13.47209626	     -0.14003829	     51.94906805	     51.94906805	     13.79344764	    -19.15426882	     13.01753136	     -9.48494249	      6.17594390	      1.20752921	      7.87229814	    -17.78117534	      1.06188591	     48.09751670	     45.47437318	      0.00000000	      0.00000000	     18.24834703	    -11.52231845	     -2.21995255	     65.96099896	     47.21106765	      0.00000000	      0.00000000
      4.43600000	     -5.90010838	     -3.35272722	     -1.59423205	      1.00402091	      0.91708035	      0.54931542	     18.67748901	      3.91491885	     -7.36189872	     28.26536954	     28.26536954	     16.45640357	     -5.69997789	      0.79074763	     18.31879594	    -13.44927931	      0.66250851	     54.95665210	     54.95665210	     15.14179268	    -19.27435089	     17.70263673	     -9.64058778	      6.09338563	      1.64100938	      8.43652816	    -18.65489380	      1.48081358	     50.76245919	     45.36638058	      0.00000000	      0.00000000	     18.63076674	    -10.66298530	     -0.32876935	     58.82409245	     46.99066613	      0.00000000	      0.00000000
      4.45500000	     -5.70259359	     -3.42646260	     -1.16360062	      1.00176254	      0.91600770	      0.55187843	     18.50908031	      4.19412223	     -7.29661663	     28.81613480	     28.81613480	     16.87316228	     -6.62885060	      0.84683594	     20.06899010	    -13.55570765	      1.28001899	     57.45356010	     57.45356010	     15.76076508	    -19.38440679	     19.67328262	     -9.93546631	      6.08051382	      1.60116398	      9.55527195	    -19.01006875	      1.03174978	     53.02673779	     45.31754381	      0.00000000	      0.00000000	     17.99931373	    -10.11979424	      0.89025223	     53.80079448	     46.83933726	      0.00000000	      0.00000000
      4.47400000	     -5.48721182	     -3.44324846	     -0.74932356	      0.99948591	      0.91477813	      0.55419601	     18.37250212	      4.41021003	     -7.19359747	     29.45041156	     29.45041156	     17.31258376	     -7.61241273	      0.89092945	     21.67949360	    -13.56957065	      1.78295092	     59.48686903	     59.48686903	     16.36830680	    -19.46783782	     21.01447704	    -10.20570533	      6.01089804	      1.54491053	     10.80347509	    -19.26682598	      0.47137839	     55.15668489	     45.27975563	      0.00000000	      0.00000000	     17.15756760	     -9.45985342	      1.82652198	     48.90179810	     46.70698269	      0.00000000	      0.00000000
      4.49300000	     -5.27776685	     -3.45395491	     -0.33940129	      0.99712601	      0.91334918	      0.55629686	     18.31718499	      4.62905729	     -6.99100467	     30.20311013	     30.20311013	     17.78063170	     -8.67589875	      0.95347045	     23.24895830	    -13.53472581	      2.24968209	     61.13550016	     61.13550016	     16.93384989	    -19.52759904	     22.05268675	    -10.48407315	      5.92946819	      1.34355493	     12.15702570	    -19.30372496	     -0.22253054	     57.53947885	     45.23995525	      0.00000000	      0.00000000	     16.29889732	     -8.92346348	      2.55346073	     43.91622564	     46.58822183	      0.00000000	      0.00000000
      4.51200000	     -5.10712056	     -3.43258983	      0.05060403	      0.99467785	      0.91173761	      0.55817901	     18.34468611	      4.76464086	     -6.90370642	     31.03852480	     31.03852480	     18.25723946	     -9.56806798	      0.82788307	     24.74870431	    -13.47496373	      2.57453100	     62.27832966	     62.27832966	     17.29368914	    -19.56421063	     22.18164415	    -10.74335008	      5.81146154	      0.78483785	     14.13725937	    -19.02635855	     -0.69842333	     59.29819057	     45.20918048	      0.00000000	      0.00000000	     14.34792536	     -8.81768326	      2.87905678	     41.52168850	     46.51449237	      0.00000000	      0.00000000
      4.53100000	     -4.90342252	     -3.38015832	      0.42582533	      0.99232685	      0.91039842	      0.55988131	     18.25404087	      4.90358145	     -6.70931673	     31.71810415	     31.71810415	     18.66694306	    -10.55498598	      0.83844128	     26.05117906	    -13.34029377	      2.83928662	     62.85292255	     62.85292255	     17.79368106	    -19.60045043	     22.62744076	    -10.98889979	      5.66003095	      0.23988030	     16.06857491	    -18.65418370	     -1.13313425	     61.37313412	     45.16585215	      0.00000000	      0.00000000	     12.53035014	     -8.59851781	      3.22110704	     38.47624943	     46.43663890	      0.00000000	      0.00000000
      4.55000000	     -4.72463159	     -3.31980869	      0.76081870	      0.98994288	      0.90928856	      0.56138998	     18.10487325	      5.02842119	     -6.52492857	     32.23629483	     32.23629483	     19.16660923	    -11.34627498	      1.27957630	     27.26367047	    -13.15645071	      3.05704106	     62.94013724	     62.94013724	     18.56040619	    -19.61812399	     23.87658308	    -11.18943982	      5.52553248	      1.15857654	     16.48786999	    -19.16529491	     -2.33583694	     65.16938265	     45.10018343	      0.00000000	      0.00000000	     12.76572083	     -7.36862403	      3.67706496	     31.55882743	     46.35053054	      0.00000000	      0.00000000
